<svg width="16" height="16" viewBox="0 0 16 16" fill="none" xmlns="http://www.w3.org/2000/svg">
<path d="M7.99998 8.66659C8.36817 8.66659 8.66665 8.36811 8.66665 7.99992C8.66665 7.63173 8.36817 7.33325 7.99998 7.33325C7.63179 7.33325 7.33331 7.63173 7.33331 7.99992C7.33331 8.36811 7.63179 8.66659 7.99998 8.66659Z" stroke="white" stroke-width="1.33333" stroke-linecap="round" stroke-linejoin="round"/>
<path d="M12.6667 8.66659C13.0349 8.66659 13.3333 8.36811 13.3333 7.99992C13.3333 7.63173 13.0349 7.33325 12.6667 7.33325C12.2985 7.33325 12 7.63173 12 7.99992C12 8.36811 12.2985 8.66659 12.6667 8.66659Z" stroke="white" stroke-width="1.33333" stroke-linecap="round" stroke-linejoin="round"/>
<path d="M3.66667 8.33333C4.03486 8.33333 4.33333 8.03486 4.33333 7.66667C4.33333 7.29848 4.03486 7 3.66667 7C3.29848 7 3 7.29848 3 7.66667C3 8.03486 3.29848 8.33333 3.66667 8.33333Z" stroke="white" stroke-width="1.33333" stroke-linecap="round" stroke-linejoin="round"/>
</svg>
